<svg width="114" height="39" viewBox="0 0 114 39" fill="none" xmlns="http://www.w3.org/2000/svg">
<g clip-path="url(#clip0_2315_97028)">
<path d="M0.833491 15.8505C1.425 17.1006 2.7559 18.633 5.05472 18.633C7.35354 18.633 8.87264 16.899 8.87264 14.7617C8.87264 9.84204 0.457075 11.9524 0.457075 5.67508C0.457075 2.71788 2.70212 0.634399 6.25118 0.634399C7.9316 0.634399 9.12807 1.03765 10.2035 1.88449C9.8809 2.50281 9.69269 3.10769 9.47759 4.12927H9.15495C8.77854 3.14802 7.98538 1.61565 5.98231 1.61565C3.97924 1.61565 2.5408 2.97327 2.5408 4.92234C2.5408 9.90925 10.9564 7.83921 10.9564 13.7267C10.9564 16.9796 8.52311 19.7352 4.40943 19.7352C2.19127 19.7487 0.941038 18.969 0 18.2163C0.322641 17.3963 0.403302 16.8587 0.510849 15.8371H0.833491V15.8505Z" fill="black"/>
<path d="M23.257 1.61565C19.0895 1.61565 15.89 4.26369 15.89 10.1915C15.89 16.1194 19.0895 18.7674 23.257 18.7674C27.4244 18.7674 30.6509 16.1194 30.6509 10.1915C30.6509 4.26369 27.4513 1.61565 23.257 1.61565ZM23.257 0.634399C29.1586 0.634399 33.2723 4.12927 33.2723 10.1915C33.2723 15.1784 30.4895 18.4179 26.228 19.4261C28.1235 20.945 30.0997 22.5042 32.2641 24.0232C31.323 24.0769 30.4761 24.6684 30.1803 25.1119C28.2311 23.3242 26.2549 21.5364 24.0367 19.7218C23.7678 19.7487 23.5259 19.7487 23.257 19.7487C17.3822 19.7487 13.2686 16.2538 13.2686 10.1915C13.2686 4.12927 17.3822 0.634399 23.257 0.634399Z" fill="black"/>
<path d="M50.7625 0.983887C51.112 1.06454 51.4884 1.1183 51.8514 1.1183C52.1203 1.1183 52.416 1.06454 52.658 0.983887C52.4429 3.47062 52.2278 8.16182 52.174 12.0599C52.1203 16.7915 49.3644 19.7487 44.5651 19.7487C39.2818 19.7487 36.9292 17.2888 36.9292 12.1137C36.9292 10.4604 37.0637 9.22372 37.0637 7.89298C37.0637 4.94922 36.9561 2.5297 36.9023 0.983887C37.3325 1.06454 37.8703 1.1183 38.287 1.1183C38.6634 1.1183 39.0802 1.06454 39.4297 0.983887C39.2684 2.55658 39.1071 6.18587 39.1071 10.1378C39.1071 13.767 39.1071 18.4851 45.0625 18.4851C51.0179 18.4851 50.9104 13.0143 50.9104 9.65386C50.9104 4.58629 50.9104 2.01891 50.749 0.983887" fill="black"/>
<path d="M57.7932 7.89299C57.7932 5.59444 57.6857 3.26901 57.5781 0.970459C58.0352 1.05111 58.4654 1.10488 58.8821 1.10488C59.2989 1.10488 59.7425 1.05111 60.1861 0.970459C60.0786 3.26901 59.971 5.59444 59.971 7.89299V12.4766C59.971 14.7752 60.0786 17.1006 60.1861 19.3992C59.7291 19.3185 59.2989 19.2648 58.8821 19.2648C58.4654 19.2648 58.0218 19.3185 57.5781 19.3992C57.6857 17.1006 57.7932 14.7752 57.7932 12.4766V7.89299Z" fill="black"/>
<path d="M67.4054 9.41192C67.8894 9.51945 68.5078 9.54633 69.1934 9.54633C71.3846 9.54633 74.3019 8.63229 74.3019 5.46002C74.3019 2.65069 71.9761 1.96515 70.1613 1.96515C68.9379 1.96515 68.1313 2.0458 67.5667 2.09957C67.4861 4.04863 67.4054 5.97081 67.4054 7.89299V9.41192ZM65.2141 7.89299C65.2141 5.59444 65.1066 3.26901 64.999 0.970459C66.0207 1.05111 67.029 1.10488 68.0507 1.10488C69.0724 1.10488 70.0806 0.970459 71.0889 0.970459C74.1002 0.970459 76.641 2.01892 76.641 5.19119C76.641 8.63229 73.1995 10.0302 71.1695 10.2856C72.4736 11.9121 76.9368 17.6517 78.4828 19.3857C77.945 19.3051 77.4207 19.2513 76.883 19.2513C76.3721 19.2513 75.8478 19.3051 75.337 19.3857C74.275 17.7593 70.7125 12.8396 68.4136 10.5276H67.392V12.4766C67.392 14.7752 67.4995 17.1006 67.607 19.3992C67.15 19.3185 66.7332 19.2648 66.303 19.2648C65.8728 19.2648 65.4427 19.3185 64.999 19.3992C65.1066 17.1006 65.2141 14.7752 65.2141 12.4766V7.89299Z" fill="black"/>
<path d="M81.5344 7.86609C81.5344 5.56754 81.4269 3.24211 81.3193 0.983887C82.9191 1.06454 84.492 1.1183 86.1052 1.1183C87.7184 1.1183 89.2778 1.06454 90.8507 0.983887C90.7969 1.25272 90.77 1.52156 90.77 1.7904C90.77 2.05923 90.7969 2.32807 90.8507 2.5969C88.6057 2.4356 87.3016 2.24742 83.8332 2.24742C83.8064 3.38997 83.7257 4.3309 83.7257 5.63475C83.7257 7.01926 83.7526 8.48442 83.7526 9.15651C86.8983 9.15651 88.6594 9.02209 90.2457 8.88767C90.192 9.15651 90.1651 9.45223 90.1651 9.72106C90.1651 9.9899 90.192 10.2587 90.2457 10.5276C88.404 10.3394 85.0432 10.2856 83.7526 10.2856C83.7257 10.9308 83.7257 11.5895 83.7257 14.1569C83.7257 16.1866 83.7526 17.4904 83.7795 18.1625C86.159 18.1625 89.3047 18.1356 90.9851 17.813C90.9314 18.055 90.9045 18.4045 90.9045 18.6464C90.9045 18.8884 90.9314 19.1841 90.9851 19.4261C89.4123 19.3454 87.8125 19.2916 86.1858 19.2916C84.5592 19.2916 82.9594 19.3454 81.3193 19.4261C81.4269 17.1006 81.5344 14.7752 81.5344 12.4766V7.87954V7.86609Z" fill="black"/>
<path d="M1.38467 32.841C1.70731 32.9217 2.1375 32.962 2.47358 32.962C3.73726 32.962 5.35047 32.4915 5.35047 30.3946C5.35047 28.6472 4.35566 28.2708 2.76934 28.2708H1.38467V32.8276V32.841ZM0.120991 31.685C0.120991 30.3677 0.0537736 29.0235 0 27.7062C0.497406 27.76 0.994811 27.7869 1.49222 27.7869C1.98962 27.7869 2.97099 27.7062 3.40118 27.7062C4.31533 27.7062 6.76203 27.7331 6.76203 30.3005C6.76203 33.0023 4.10024 33.5265 2.63491 33.5265C2.17783 33.5265 1.78797 33.5131 1.39811 33.4862V34.3331C1.39811 35.6503 1.46533 36.9945 1.5191 38.3118C1.26368 38.2715 1.00825 38.2312 0.766274 38.2312C0.524292 38.2312 0.268868 38.2581 0.0134434 38.3118C0.0806604 36.9945 0.134434 35.6638 0.134434 34.3331V31.6985L0.120991 31.685Z" fill="black"/>
<path d="M11.1579 29.5881L9.49095 33.4862C10.0287 33.4862 10.6067 33.5131 11.1445 33.5131C11.7091 33.5131 12.3006 33.4997 12.8652 33.4862L11.1579 29.5881ZM11.6688 27.5181C13.1744 31.0801 15.4733 36.6719 16.2933 38.3118C16.011 38.2715 15.7556 38.2312 15.4867 38.2312C15.2178 38.2312 14.949 38.2581 14.6667 38.3118C14.3709 37.2499 13.6315 35.5697 13.0803 34.1986C12.4216 34.1852 11.7494 34.1718 11.0638 34.1718C10.432 34.1718 9.82703 34.1852 9.19519 34.1986C8.54991 35.7848 7.97184 37.344 7.70298 38.3118C7.50132 38.2715 7.32656 38.2312 7.13835 38.2312C6.95015 38.2312 6.77538 38.2581 6.57373 38.3118C8.21382 34.7229 9.81359 31.1474 11.373 27.5181H11.6688Z" fill="black"/>
<path d="M19.0495 31.685C19.0495 30.6231 19.0361 29.5612 19.0092 28.5127C17.9472 28.5127 16.5759 28.5799 15.729 28.6875C15.7693 28.5262 15.8097 28.3649 15.8097 28.1901C15.8097 28.0288 15.7828 27.881 15.729 27.7197C17.0465 27.7734 18.3639 27.8003 19.6948 27.8003C21.0257 27.8003 22.3297 27.7734 23.6606 27.7197C23.6068 27.8944 23.5799 28.0423 23.5799 28.217C23.5799 28.3783 23.6068 28.5396 23.6606 28.6875C22.8002 28.5799 21.429 28.5127 20.3804 28.5127C20.3535 29.5746 20.3266 30.6365 20.3266 31.685V34.3196C20.3266 35.6369 20.3939 36.9811 20.4476 38.2984C20.1922 38.258 19.9368 38.2177 19.6948 38.2177C19.4528 38.2177 19.1974 38.2446 18.942 38.2984C18.9957 36.9811 19.063 35.6503 19.063 34.3196V31.685H19.0495Z" fill="black"/>
<path d="M27.5857 31.685C27.5857 30.6231 27.5722 29.5612 27.5453 28.5127C26.4833 28.5127 25.1255 28.5799 24.2651 28.6875C24.3055 28.5262 24.3458 28.3649 24.3458 28.1901C24.3458 28.0288 24.3189 27.881 24.2651 27.7197C25.5826 27.7734 26.9 27.8003 28.2309 27.8003C29.5618 27.8003 30.8793 27.7734 32.1967 27.7197C32.1564 27.8944 32.1161 28.0423 32.1161 28.217C32.1161 28.3783 32.143 28.5396 32.1967 28.6875C31.3364 28.5799 29.9651 28.5127 28.9166 28.5127C28.8897 29.5746 28.8628 30.6365 28.8628 31.685V34.3196C28.8628 35.6369 28.93 36.9811 28.9838 38.2984C28.7283 38.258 28.4729 38.2177 28.2309 38.2177C27.989 38.2177 27.7335 38.2446 27.4781 38.2984C27.5453 36.9811 27.5991 35.6503 27.5991 34.3196V31.685H27.5857Z" fill="black"/>
<path d="M38.3004 28.0826C35.9075 28.0826 34.0657 29.6015 34.0657 33.0158C34.0657 36.43 35.9075 37.9355 38.3004 37.9355C40.6933 37.9355 42.5485 36.4165 42.5485 33.0158C42.5485 29.615 40.7068 28.0826 38.3004 28.0826ZM38.3004 27.5181C41.6881 27.5181 44.0542 29.5343 44.0542 33.0158C44.0542 36.4972 41.6881 38.5135 38.3004 38.5135C34.9127 38.5135 32.5601 36.4972 32.5601 33.0158C32.5601 29.5343 34.9261 27.5181 38.3004 27.5181Z" fill="black"/>
<path d="M54.8491 38.5C52.5099 35.7578 49.7271 32.8007 47.0922 30.0048C47.0788 30.5693 47.0519 31.4968 47.0519 33.1233C47.0519 34.4406 47.1191 37.68 47.1863 38.2984C47.0116 38.258 46.8368 38.2177 46.6486 38.2177C46.4604 38.2177 46.2856 38.2446 46.084 38.2984C46.205 37.5725 46.4066 33.6475 46.4066 31.6178C46.4066 29.5881 46.4066 28.1901 46.3529 27.5046H46.5948C49.0953 30.2198 52.4965 33.9163 54.3651 35.8116C54.3651 33.0695 54.3651 30.072 54.2441 27.7062C54.4189 27.7465 54.5937 27.7869 54.7684 27.7869C54.9432 27.7869 55.0911 27.76 55.2658 27.7062C55.1717 28.6068 55.0238 31.6447 55.0238 32.841C55.0238 34.4002 55.0507 37.801 55.0642 38.4865H54.8491V38.5Z" fill="black"/>
<path d="M63.6813 34.5616C63.6813 35.5966 63.7485 36.6316 63.7754 37.6666C64.1518 37.7069 64.7299 37.7473 65.2811 37.7473C66.5985 37.7473 67.7547 36.8198 67.7547 35.1664C67.7547 33.419 66.4238 33.0023 64.3804 33.0023H63.6948V34.5616H63.6813ZM64.5014 32.4243C65.9398 32.4243 67.432 31.9135 67.432 30.2199C67.432 28.5262 66.1011 28.2842 64.9315 28.2842C64.4073 28.2842 64.0577 28.3111 63.762 28.3649C63.7351 29.3327 63.6679 30.3139 63.6679 31.2818V32.4378H64.5014V32.4243ZM62.4176 31.6716C62.4176 30.3543 62.3504 29.0235 62.2966 27.7062C62.8344 27.76 63.3856 27.7869 63.9233 27.7869C64.461 27.7869 65.0122 27.7062 65.5499 27.7062C67.2976 27.7062 68.7898 28.1767 68.7898 29.9107C68.7898 31.4162 67.7412 32.263 66.2087 32.5991V32.6259C68.037 32.72 69.1528 33.4593 69.1528 35.2068C69.1528 37.4784 67.0422 38.2984 65.2676 38.2984C64.7702 38.2984 64.2728 38.2177 63.7754 38.2177C63.278 38.2177 62.7806 38.2446 62.2832 38.2984C62.3504 36.9542 62.4042 35.6235 62.4042 34.3062V31.6716H62.4176Z" fill="black"/>
<path d="M76.6812 28.0826C74.2883 28.0826 72.4466 29.6015 72.4466 33.0158C72.4466 36.43 74.2883 37.9355 76.6812 37.9355C79.0742 37.9355 80.9294 36.4165 80.9294 33.0158C80.9294 29.615 79.0876 28.0826 76.6812 28.0826ZM76.6812 27.5181C80.069 27.5181 82.435 29.5343 82.435 33.0158C82.435 36.4972 80.069 38.5135 76.6812 38.5135C73.2935 38.5135 70.9409 36.4972 70.9409 33.0158C70.9409 29.5343 73.307 27.5181 76.6812 27.5181Z" fill="black"/>
<path d="M93.3779 29.5881C92.746 28.8354 91.5496 28.0826 90.0036 28.0826C87.4493 28.0826 85.5 29.6015 85.5 33.0158C85.5 36.0267 87.1939 37.8683 90.0842 37.8683C90.958 37.8683 92.0201 37.6935 92.5444 37.3709C92.5578 36.7526 92.5713 36.1477 92.5713 35.5159C92.5713 34.7901 92.5309 34.0508 92.4906 33.4056C92.6922 33.4593 92.9746 33.4862 93.23 33.4862C93.4585 33.4862 93.6871 33.4728 93.8887 33.4056C93.8618 33.8626 93.8349 34.8707 93.8349 36.5241C93.8349 36.9273 93.8484 37.3575 93.8484 37.7742C92.9746 38.0833 91.1328 38.5135 89.9363 38.5135C86.2797 38.5135 84.0078 36.6047 84.0078 33.0158C84.0078 29.4268 86.3738 27.5181 90.0036 27.5181C92.0738 27.5181 93.2031 28.0289 93.9156 28.4052C93.7543 28.6875 93.6064 29.1983 93.5661 29.5881H93.3779Z" fill="black"/>
<path d="M105.329 29.5881C104.697 28.8354 103.5 28.0826 101.955 28.0826C99.4003 28.0826 97.451 29.6015 97.451 33.0158C97.451 36.0267 99.1448 37.8683 102.035 37.8683C102.909 37.8683 103.971 37.6935 104.495 37.3709C104.509 36.7526 104.522 36.1477 104.522 35.5159C104.522 34.7901 104.482 34.0508 104.442 33.4056C104.643 33.4593 104.939 33.4862 105.181 33.4862C105.409 33.4862 105.638 33.4728 105.84 33.4056C105.813 33.8626 105.772 34.8707 105.772 36.5241C105.772 36.9273 105.786 37.3575 105.786 37.7742C104.912 38.0833 103.07 38.5135 101.874 38.5135C98.2172 38.5135 95.9453 36.6047 95.9453 33.0158C95.9453 29.4268 98.3113 27.5181 101.955 27.5181C104.025 27.5181 105.141 28.0289 105.867 28.4052C105.705 28.6875 105.557 29.1983 105.517 29.5881H105.329Z" fill="black"/>
<path d="M108.139 36.2687C108.475 36.9945 109.241 37.8682 110.559 37.8682C111.876 37.8682 112.75 36.8736 112.75 35.6503C112.75 32.8276 107.91 34.0373 107.91 30.4349C107.91 28.7278 109.201 27.5315 111.244 27.5315C112.212 27.5315 112.898 27.76 113.516 28.2574C113.341 28.6068 113.234 28.9698 113.099 29.5478H112.911C112.696 28.9832 112.239 28.1095 111.083 28.1095C109.927 28.1095 109.107 28.8891 109.107 30.0182C109.107 32.8813 113.946 31.685 113.946 35.0858C113.946 36.9542 112.548 38.5403 110.182 38.5403C108.905 38.5403 108.193 38.0968 107.655 37.6666C107.843 37.1962 107.883 36.887 107.951 36.2956H108.139V36.2687Z" fill="black"/>
<path d="M108.098 1.22583C108.085 1.40057 108.044 1.57532 108.044 1.75006C108.044 5.43312 110.585 8.51129 114 9.38501C113.718 5.68851 111.378 2.57001 108.098 1.22583Z" fill="black"/>
<path d="M104.455 0.5C99.7232 0.5 95.8112 3.92766 95.0181 8.41723C96.2414 9.18341 97.6664 9.65387 99.2258 9.65387C103.595 9.65387 107.131 6.11868 107.131 1.75009C107.131 1.45437 107.077 1.18553 107.05 0.903254C106.23 0.674744 105.369 0.513442 104.469 0.513442" fill="black"/>
<path d="M104.455 19.7352C105.356 19.7352 106.203 19.5739 107.036 19.3454C107.063 19.0631 107.117 18.7809 107.117 18.4986C107.117 14.13 103.581 10.5948 99.2122 10.5948C97.6662 10.5948 96.2277 11.0518 95.0044 11.8314C95.811 16.3344 99.723 19.7487 104.442 19.7487" fill="black"/>
<path d="M108.098 19.0094C111.378 17.6652 113.718 14.5467 114 10.8502C110.585 11.7239 108.044 14.8021 108.044 18.4852C108.044 18.6599 108.085 18.8347 108.098 19.0094Z" fill="black"/>
</g>
<defs>
<clipPath id="clip0_2315_97028">
<rect width="114" height="38" fill="white" transform="translate(0 0.5)"/>
</clipPath>
</defs>
</svg>
